<svg xmlns="http://www.w3.org/2000/svg" version="1.1" xmlns:xlink="http://www.w3.org/1999/xlink" width="22" height="22" x="0" y="0" viewBox="0 0 512 512" style="enable-background:new 0 0 512 512" xml:space="preserve" class="hovered-paths">
    <g>
        <path d="M507.249 34.239a14.967 14.967 0 0 0-11.244-4.014c-189.033 12.563-292.211 12.563-480.004 0A15.002 15.002 0 0 0 0 45.192v316a15.003 15.003 0 0 0 15.989 14.968c188.361-12.453 291.543-12.453 480.021 0A15.004 15.004 0 0 0 512 361.192v-316c0-4.151-1.72-8.116-4.751-10.953zM415.623 452.316 308 423.478V397.35c-17.768-.359-34.99-.531-52.044-.531-17.027 0-34.221.172-51.956.529v26.129L96.377 452.316c-8.002 2.144-12.751 10.369-10.607 18.371 1.796 6.702 7.856 11.122 14.479 11.122a15.04 15.04 0 0 0 3.892-.515l112.882-30.246c.649.086 77.307.086 77.956 0l112.882 30.246c1.3.349 2.605.515 3.892.515 6.622 0 12.684-4.42 14.479-11.122 2.142-8.002-2.607-16.227-10.609-18.371z" fill="currentColor" opacity="1" data-original="#000000" class="hovered-path"></path>
    </g>
</svg>